<svg xmlns="http://www.w3.org/2000/svg" version="1.1" xmlns:xlink="http://www.w3.org/1999/xlink" xmlns:svgjs="http://svgjs.com/svgjs" width="1440" height="560" preserveAspectRatio="none" viewBox="0 0 1440 560"><g mask="url(&quot;#SvgjsMask1000&quot;)" fill="none"><rect width="1440" height="560" x="0" y="0" fill="#0e2a47"></rect><path d="M0,553.599C102.792,542.26,150.161,420.464,223.101,347.152C279.151,290.815,327.514,233.733,378.712,172.952C451.208,86.887,591.027,28.106,586.557,-84.334C582.216,-193.526,448.81,-248.563,359.454,-311.469C287.452,-362.158,207.042,-393.371,120.999,-412.085C40.13,-429.674,-42.366,-437.985,-122.216,-416.231C-203.095,-394.196,-276.772,-350.722,-332.869,-288.432C-389.647,-225.385,-411.277,-143.081,-440.079,-63.274C-476.278,37.03,-562.347,139.747,-523.192,238.934C-484.332,337.374,-347.841,345.583,-257.147,400.129C-169.837,452.64,-101.27,564.77,0,553.599" fill="#0b2239"></path><path d="M1440 997.813C1518.448 979.102 1564.463 902.841 1632.2069999999999 859.0799999999999 1699.73 815.461 1786.743 804.0260000000001 1837.048 741.326 1894.039 670.292 1935.07 580.596 1928.5140000000001 489.762 1921.799 396.731 1878.78 298.898 1801.359 246.88 1726.699 196.71800000000002 1627.579 231.161 1537.72 227.19600000000003 1471.233 224.262 1408.478 221.668 1342.11 226.61700000000002 1257.193 232.949 1156.559 202.39800000000002 1094.098 260.274 1032.228 317.603 1039.347 418.805 1043.797 503.03499999999997 1047.694 576.801 1097.171 636.23 1117.709 707.186 1142.978 794.485 1110.7060000000001 906.508 1178.199 967.37 1244.7930000000001 1027.421 1352.776 1018.6179999999999 1440 997.813" fill="#113255"></path></g><defs><mask id="SvgjsMask1000"><rect width="1440" height="560" fill="#ffffff"></rect></mask></defs></svg>